<?xml version="1.0" encoding="UTF-8" standalone="no"?>
<svg width="800" height="600" xmlns="http://www.w3.org/2000/svg">
  <!-- Futuristic Dubai background -->
  <defs>
    <linearGradient id="skyGradient" x1="0%" y1="0%" x2="0%" y2="100%">
      <stop offset="0%" style="stop-color:#05103b;stop-opacity:1" />
      <stop offset="100%" style="stop-color:#0a3e91;stop-opacity:1" />
    </linearGradient>
    <linearGradient id="waterGradient" x1="0%" y1="0%" x2="0%" y2="100%">
      <stop offset="0%" style="stop-color:#00008B;stop-opacity:1" />
      <stop offset="100%" style="stop-color:#0000CD;stop-opacity:1" />
    </linearGradient>
    <linearGradient id="buildingGrad1" x1="0%" y1="0%" x2="100%" y2="0%">
      <stop offset="0%" style="stop-color:#00FFFF;stop-opacity:0.7" />
      <stop offset="100%" style="stop-color:#1E90FF;stop-opacity:0.7" />
    </linearGradient>
    <linearGradient id="buildingGrad2" x1="0%" y1="0%" x2="100%" y2="0%">
      <stop offset="0%" style="stop-color:#9370DB;stop-opacity:0.7" />
      <stop offset="100%" style="stop-color:#EE82EE;stop-opacity:0.7" />
    </linearGradient>
    <linearGradient id="buildingGrad3" x1="0%" y1="0%" x2="100%" y2="0%">
      <stop offset="0%" style="stop-color:#7FFF00;stop-opacity:0.7" />
      <stop offset="100%" style="stop-color:#00FA9A;stop-opacity:0.7" />
    </linearGradient>
    <filter id="glow" x="-50%" y="-50%" width="200%" height="200%">
      <feGaussianBlur stdDeviation="5" result="blur" />
      <feComposite in="SourceGraphic" in2="blur" operator="over" />
    </filter>
  </defs>
  
  <!-- Night Sky -->
  <rect width="800" height="600" fill="url(#skyGradient)" />
  
  <!-- Stars -->
  <g fill="#FFFFFF">
    <circle cx="50" cy="50" r="1" />
    <circle cx="100" cy="80" r="1.5" />
    <circle cx="150" cy="40" r="1" />
    <circle cx="200" cy="60" r="1.2" />
    <circle cx="250" cy="30" r="1" />
    <circle cx="300" cy="50" r="1.3" />
    <circle cx="350" cy="70" r="1" />
    <circle cx="400" cy="40" r="1.5" />
    <circle cx="450" cy="60" r="1" />
    <circle cx="500" cy="30" r="1.2" />
    <circle cx="550" cy="50" r="1" />
    <circle cx="600" cy="70" r="1.3" />
    <circle cx="650" cy="40" r="1" />
    <circle cx="700" cy="60" r="1.5" />
    <circle cx="750" cy="30" r="1" />
    
    <!-- More stars -->
    <circle cx="75" cy="100" r="1" />
    <circle cx="125" cy="120" r="1.2" />
    <circle cx="175" cy="90" r="1" />
    <circle cx="225" cy="110" r="1.3" />
    <circle cx="275" cy="80" r="1" />
    <circle cx="325" cy="100" r="1.5" />
    <circle cx="375" cy="120" r="1" />
    <circle cx="425" cy="90" r="1.2" />
    <circle cx="475" cy="110" r="1" />
    <circle cx="525" cy="80" r="1.3" />
    <circle cx="575" cy="100" r="1" />
    <circle cx="625" cy="120" r="1.5" />
    <circle cx="675" cy="90" r="1" />
    <circle cx="725" cy="110" r="1.2" />
    <circle cx="775" cy="80" r="1" />
  </g>
  
  <!-- Flying Vehicles -->
  <g filter="url(#glow)">
    <path d="M 100,200 L 120,190 L 140,200 L 120,210 Z" fill="#FF00FF" />
    <path d="M 200,150 L 230,140 L 260,150 L 230,160 Z" fill="#00FFFF" />
    <path d="M 500,180 L 520,170 L 540,180 L 520,190 Z" fill="#FFFF00" />
    <path d="M 700,230 L 730,220 L 760,230 L 730,240 Z" fill="#7FFF00" />
  </g>
  
  <!-- Futuristic Water/Gulf -->
  <rect width="800" height="150" y="450" fill="url(#waterGradient)" />
  
  <!-- Future Skyline -->
  <g filter="url(#glow)">
    <!-- Super-tall Building 1 -->
    <g transform="translate(100, 450)">
      <path d="M 0,0 L 20,-350 L 40,0 Z" fill="url(#buildingGrad1)" />
      <rect x="15" y="-360" width="10" height="10" fill="#00FFFF" />
      <!-- Windows -->
      <g fill="#FFFFFF" opacity="0.8">
        <rect x="5" y="-330" width="30" height="2" />
        <rect x="7" y="-310" width="26" height="2" />
        <rect x="9" y="-290" width="22" height="2" />
        <rect x="11" y="-270" width="18" height="2" />
        <rect x="13" y="-250" width="14" height="2" />
        <rect x="15" y="-230" width="10" height="2" />
        <rect x="17" y="-210" width="6" height="2" />
        <rect x="5" y="-190" width="30" height="2" />
        <rect x="7" y="-170" width="26" height="2" />
        <rect x="9" y="-150" width="22" height="2" />
        <rect x="11" y="-130" width="18" height="2" />
        <rect x="13" y="-110" width="14" height="2" />
        <rect x="15" y="-90" width="10" height="2" />
        <rect x="17" y="-70" width="6" height="2" />
        <rect x="5" y="-50" width="30" height="2" />
        <rect x="7" y="-30" width="26" height="2" />
      </g>
    </g>
    
    <!-- Super-tall Building 2 -->
    <g transform="translate(250, 450)">
      <rect x="0" y="-400" width="40" height="400" fill="url(#buildingGrad2)" />
      <path d="M 0,-400 L 20,-450 L 40,-400 Z" fill="url(#buildingGrad2)" />
      <rect x="15" y="-460" width="10" height="10" fill="#EE82EE" />
      <!-- Windows -->
      <g fill="#FFFFFF" opacity="0.8">
        <rect x="5" y="-390" width="30" height="3" />
        <rect x="5" y="-370" width="30" height="3" />
        <rect x="5" y="-350" width="30" height="3" />
        <rect x="5" y="-330" width="30" height="3" />
        <rect x="5" y="-310" width="30" height="3" />
        <rect x="5" y="-290" width="30" height="3" />
        <rect x="5" y="-270" width="30" height="3" />
        <rect x="5" y="-250" width="30" height="3" />
        <rect x="5" y="-230" width="30" height="3" />
        <rect x="5" y="-210" width="30" height="3" />
        <rect x="5" y="-190" width="30" height="3" />
        <rect x="5" y="-170" width="30" height="3" />
        <rect x="5" y="-150" width="30" height="3" />
        <rect x="5" y="-130" width="30" height="3" />
        <rect x="5" y="-110" width="30" height="3" />
        <rect x="5" y="-90" width="30" height="3" />
        <rect x="5" y="-70" width="30" height="3" />
        <rect x="5" y="-50" width="30" height="3" />
        <rect x="5" y="-30" width="30" height="3" />
      </g>
    </g>
    
    <!-- Super-tall Building 3 -->
    <g transform="translate(400, 450)">
      <path d="M 0,0 L 0,-380 C 0,-400 80,-400 80,-380 L 80,0 Z" fill="url(#buildingGrad3)" />
      <ellipse cx="40" cy="-400" rx="20" ry="10" fill="#7FFF00" />
      <!-- Windows -->
      <g fill="#FFFFFF" opacity="0.8">
        <rect x="10" y="-370" width="60" height="4" />
        <rect x="10" y="-350" width="60" height="4" />
        <rect x="10" y="-330" width="60" height="4" />
        <rect x="10" y="-310" width="60" height="4" />
        <rect x="10" y="-290" width="60" height="4" />
        <rect x="10" y="-270" width="60" height="4" />
        <rect x="10" y="-250" width="60" height="4" />
        <rect x="10" y="-230" width="60" height="4" />
        <rect x="10" y="-210" width="60" height="4" />
        <rect x="10" y="-190" width="60" height="4" />
        <rect x="10" y="-170" width="60" height="4" />
        <rect x="10" y="-150" width="60" height="4" />
        <rect x="10" y="-130" width="60" height="4" />
        <rect x="10" y="-110" width="60" height="4" />
        <rect x="10" y="-90" width="60" height="4" />
        <rect x="10" y="-70" width="60" height="4" />
        <rect x="10" y="-50" width="60" height="4" />
        <rect x="10" y="-30" width="60" height="4" />
      </g>
    </g>
    
    <!-- Super-tall Building 4 -->
    <g transform="translate(550, 450)">
      <path d="M 0,0 L 40,-300 L 80,0 Z" fill="url(#buildingGrad1)" />
      <rect x="35" y="-305" width="10" height="5" fill="#00FFFF" />
      <!-- Windows -->
      <g fill="#FFFFFF" opacity="0.8">
        <rect x="15" y="-280" width="50" height="2" />
        <rect x="20" y="-260" width="40" height="2" />
        <rect x="25" y="-240" width="30" height="2" />
        <rect x="15" y="-220" width="50" height="2" />
        <rect x="20" y="-200" width="40" height="2" />
        <rect x="25" y="-180" width="30" height="2" />
        <rect x="15" y="-160" width="50" height="2" />
        <rect x="20" y="-140" width="40" height="2" />
        <rect x="25" y="-120" width="30" height="2" />
        <rect x="15" y="-100" width="50" height="2" />
        <rect x="20" y="-80" width="40" height="2" />
        <rect x="25" y="-60" width="30" height="2" />
        <rect x="15" y="-40" width="50" height="2" />
        <rect x="20" y="-20" width="40" height="2" />
      </g>
    </g>
    
    <!-- Super-tall Building 5 -->
    <g transform="translate(680, 450)">
      <rect x="0" y="-320" width="60" height="320" fill="url(#buildingGrad2)" />
      <path d="M 10,-320 L 30,-370 L 50,-320 Z" fill="url(#buildingGrad2)" />
      <rect x="25" y="-380" width="10" height="10" fill="#EE82EE" />
      <!-- Windows -->
      <g fill="#FFFFFF" opacity="0.8">
        <rect x="10" y="-310" width="40" height="3" />
        <rect x="10" y="-290" width="40" height="3" />
        <rect x="10" y="-270" width="40" height="3" />
        <rect x="10" y="-250" width="40" height="3" />
        <rect x="10" y="-230" width="40" height="3" />
        <rect x="10" y="-210" width="40" height="3" />
        <rect x="10" y="-190" width="40" height="3" />
        <rect x="10" y="-170" width="40" height="3" />
        <rect x="10" y="-150" width="40" height="3" />
        <rect x="10" y="-130" width="40" height="3" />
        <rect x="10" y="-110" width="40" height="3" />
        <rect x="10" y="-90" width="40" height="3" />
        <rect x="10" y="-70" width="40" height="3" />
        <rect x="10" y="-50" width="40" height="3" />
        <rect x="10" y="-30" width="40" height="3" />
      </g>
    </g>
  </g>
  
  <!-- Futuristic Hover Transport System -->
  <g>
    <path d="M 0,300 L 800,300" stroke="#00FFFF" stroke-width="2" />
    <path d="M 0,302 L 800,302" stroke="#FF00FF" stroke-width="1" />
    <path d="M 0,304 L 800,304" stroke="#FFFF00" stroke-width="1" />
    
    <!-- Transport Pods -->
    <g filter="url(#glow)">
      <ellipse cx="100" cy="300" rx="15" ry="10" fill="#00FFFF" opacity="0.8" />
      <ellipse cx="300" cy="300" rx="15" ry="10" fill="#00FFFF" opacity="0.8" />
      <ellipse cx="500" cy="300" rx="15" ry="10" fill="#00FFFF" opacity="0.8" />
      <ellipse cx="700" cy="300" rx="15" ry="10" fill="#00FFFF" opacity="0.8" />
    </g>
  </g>
  
  <!-- Holographic Displays -->
  <g filter="url(#glow)">
    <rect x="180" y="350" width="30" height="40" fill="#FF00FF" opacity="0.4" />
    <rect x="380" y="330" width="40" height="50" fill="#00FFFF" opacity="0.4" />
    <rect x="580" y="360" width="35" height="45" fill="#FFFF00" opacity="0.4" />
  </g>
  
  <!-- Water Reflections -->
  <g opacity="0.6">
    <rect x="100" y="460" width="40" height="130" fill="url(#buildingGrad1)" />
    <rect x="250" y="460" width="40" height="130" fill="url(#buildingGrad2)" />
    <rect x="400" y="460" width="80" height="130" fill="url(#buildingGrad3)" />
    <rect x="550" y="460" width="80" height="130" fill="url(#buildingGrad1)" />
    <rect x="680" y="460" width="60" height="130" fill="url(#buildingGrad2)" />
  </g>
</svg>