<svg width="800" height="600" xmlns="http://www.w3.org/2000/svg">
  <!-- Sky -->
  <rect width="800" height="600" fill="#87CEEB"/>
  
  <!-- Desert background -->
  <rect y="400" width="800" height="200" fill="#E8D0A9"/>
  
  <!-- Sand dunes -->
  <path d="M0,400 Q100,350 200,400 Q300,350 400,400 Q500,350 600,400 Q700,350 800,400 L800,600 L0,600 Z" fill="#DFC290"/>
  
  <!-- Traditional buildings -->
  <rect x="50" y="300" width="120" height="100" fill="#D2B48C"/>
  <rect x="70" y="280" width="20" height="20" fill="#A0522D"/>
  <rect x="110" y="280" width="20" height="20" fill="#A0522D"/>
  <rect x="90" y="270" width="40" height="30" fill="#D2B48C"/>
  
  <rect x="200" y="320" width="80" height="80" fill="#E6CCAB"/>
  <rect x="215" y="350" width="20" height="50" fill="#8B4513"/>
  <rect x="245" y="350" width="20" height="50" fill="#8B4513"/>
  
  <rect x="320" y="330" width="100" height="70" fill="#D2B48C"/>
  <rect x="340" y="360" width="20" height="40" fill="#8B4513"/>
  <rect x="380" y="360" width="20" height="40" fill="#8B4513"/>
  <rect x="345" y="310" width="50" height="20" fill="#D2B48C"/>
  
  <!-- Palm trees -->
  <rect x="150" y="340" width="10" height="60" fill="#8B4513"/>
  <ellipse cx="155" cy="340" rx="20" ry="15" fill="#006400"/>
  
  <rect x="500" y="360" width="10" height="40" fill="#8B4513"/>
  <ellipse cx="505" cy="360" rx="15" ry="12" fill="#006400"/>
  
  <rect x="650" y="350" width="10" height="50" fill="#8B4513"/>
  <ellipse cx="655" cy="350" rx="18" ry="14" fill="#006400"/>
  
  <!-- Traditional boat (dhow) -->
  <path d="M580,380 Q620,360 660,380 L660,400 L580,400 Z" fill="#8B4513"/>
  <rect x="610" y="360" width="5" height="20" fill="#A0522D"/>
  <path d="M615,365 L630,370 L630,380 L615,385 Z" fill="#F5F5DC"/>
  
  <!-- Clouds -->
  <ellipse cx="100" cy="100" rx="40" ry="20" fill="#FFFFFF" opacity="0.8"/>
  <ellipse cx="300" cy="150" rx="50" ry="25" fill="#FFFFFF" opacity="0.8"/>
  <ellipse cx="500" cy="120" rx="45" ry="22" fill="#FFFFFF" opacity="0.8"/>
  <ellipse cx="700" cy="180" rx="55" ry="28" fill="#FFFFFF" opacity="0.8"/>
</svg>
