<?xml version="1.0" encoding="UTF-8" standalone="no"?>
<svg width="800" height="600" xmlns="http://www.w3.org/2000/svg">
  <!-- Modern Dubai skyline background -->
  <defs>
    <linearGradient id="skyGradient" x1="0%" y1="0%" x2="0%" y2="100%">
      <stop offset="0%" style="stop-color:#1E90FF;stop-opacity:1" />
      <stop offset="100%" style="stop-color:#87CEEB;stop-opacity:1" />
    </linearGradient>
    <linearGradient id="waterGradient" x1="0%" y1="0%" x2="0%" y2="100%">
      <stop offset="0%" style="stop-color:#4682B4;stop-opacity:1" />
      <stop offset="100%" style="stop-color:#00BFFF;stop-opacity:1" />
    </linearGradient>
    <linearGradient id="burjGradient" x1="0%" y1="0%" x2="0%" y2="100%">
      <stop offset="0%" style="stop-color:#C0C0C0;stop-opacity:1" />
      <stop offset="100%" style="stop-color:#A0A0A0;stop-opacity:1" />
    </linearGradient>
    <linearGradient id="buildingGradient1" x1="0%" y1="0%" x2="0%" y2="100%">
      <stop offset="0%" style="stop-color:#B0C4DE;stop-opacity:1" />
      <stop offset="100%" style="stop-color:#6495ED;stop-opacity:1" />
    </linearGradient>
    <linearGradient id="buildingGradient2" x1="0%" y1="0%" x2="0%" y2="100%">
      <stop offset="0%" style="stop-color:#E6E6FA;stop-opacity:1" />
      <stop offset="100%" style="stop-color:#9370DB;stop-opacity:1" />
    </linearGradient>
    <linearGradient id="palmGradient" x1="0%" y1="0%" x2="0%" y2="100%">
      <stop offset="0%" style="stop-color:#E9C393;stop-opacity:1" />
      <stop offset="100%" style="stop-color:#C2913F;stop-opacity:1" />
    </linearGradient>
  </defs>
  
  <!-- Sky -->
  <rect width="800" height="600" fill="url(#skyGradient)" />
  
  <!-- Sea/Gulf -->
  <rect width="800" height="150" y="450" fill="url(#waterGradient)" />
  
  <!-- Sun -->
  <circle cx="100" cy="100" r="40" fill="#FFCC33" />
  
  <!-- The Palm -->
  <g transform="translate(50, 430) scale(0.5)">
    <path d="M 0,0 L 100,0 L 50,-100 Z" fill="url(#palmGradient)" />
    <path d="M 120,0 L 220,0 L 170,-100 Z" fill="url(#palmGradient)" />
    <path d="M 240,0 L 340,0 L 290,-100 Z" fill="url(#palmGradient)" />
    <rect x="50" y="-10" width="240" height="20" fill="url(#palmGradient)" />
  </g>
  
  <!-- Modern Buildings -->
  <g>
    <!-- Burj Khalifa -->
    <g transform="translate(400, 450)">
      <path d="M 0,0 L 30,-400 L 60,0 Z" fill="url(#burjGradient)" />
      <!-- Windows -->
      <g stroke="#FFFFFF" stroke-width="0.5" fill="none">
        <path d="M 5,-20 L 55,-20" />
        <path d="M 10,-60 L 50,-60" />
        <path d="M 15,-100 L 45,-100" />
        <path d="M 20,-150 L 40,-150" />
        <path d="M 22,-200 L 38,-200" />
        <path d="M 25,-250 L 35,-250" />
        <path d="M 27,-300 L 33,-300" />
        <path d="M 28,-350 L 32,-350" />
      </g>
    </g>
    
    <!-- Burj Al Arab -->
    <g transform="translate(200, 450)">
      <path d="M 0,0 L 20,-200 L 80,-200 L 100,0 Z" fill="url(#buildingGradient1)" />
      <path d="M 30,-200 C 30,-250 70,-250 70,-200" stroke="#FFFFFF" fill="url(#buildingGradient1)" />
    </g>
    
    <!-- Other Skyscrapers -->
    <g transform="translate(120, 450)">
      <rect x="0" y="-180" width="40" height="180" fill="url(#buildingGradient2)" />
      <!-- Windows -->
      <g fill="#FFFFFF">
        <rect x="5" y="-170" width="30" height="10" />
        <rect x="5" y="-150" width="30" height="10" />
        <rect x="5" y="-130" width="30" height="10" />
        <rect x="5" y="-110" width="30" height="10" />
        <rect x="5" y="-90" width="30" height="10" />
        <rect x="5" y="-70" width="30" height="10" />
        <rect x="5" y="-50" width="30" height="10" />
        <rect x="5" y="-30" width="30" height="10" />
      </g>
    </g>
    
    <g transform="translate(500, 450)">
      <rect x="0" y="-220" width="50" height="220" fill="url(#buildingGradient1)" />
      <!-- Windows -->
      <g fill="#FFFFFF">
        <rect x="10" y="-210" width="30" height="15" />
        <rect x="10" y="-180" width="30" height="15" />
        <rect x="10" y="-150" width="30" height="15" />
        <rect x="10" y="-120" width="30" height="15" />
        <rect x="10" y="-90" width="30" height="15" />
        <rect x="10" y="-60" width="30" height="15" />
        <rect x="10" y="-30" width="30" height="15" />
      </g>
    </g>
    
    <g transform="translate(600, 450)">
      <rect x="0" y="-150" width="60" height="150" fill="url(#buildingGradient2)" />
      <path d="M 0,-150 C 0,-180 60,-180 60,-150" fill="url(#buildingGradient2)" />
      <!-- Windows -->
      <g fill="#FFFFFF">
        <rect x="10" y="-140" width="40" height="10" />
        <rect x="10" y="-120" width="40" height="10" />
        <rect x="10" y="-100" width="40" height="10" />
        <rect x="10" y="-80" width="40" height="10" />
        <rect x="10" y="-60" width="40" height="10" />
        <rect x="10" y="-40" width="40" height="10" />
        <rect x="10" y="-20" width="40" height="10" />
      </g>
    </g>
    
    <g transform="translate(680, 450)">
      <rect x="0" y="-200" width="40" height="200" fill="url(#buildingGradient1)" />
      <!-- Windows -->
      <g fill="#FFFFFF">
        <rect x="5" y="-190" width="30" height="10" />
        <rect x="5" y="-170" width="30" height="10" />
        <rect x="5" y="-150" width="30" height="10" />
        <rect x="5" y="-130" width="30" height="10" />
        <rect x="5" y="-110" width="30" height="10" />
        <rect x="5" y="-90" width="30" height="10" />
        <rect x="5" y="-70" width="30" height="10" />
        <rect x="5" y="-50" width="30" height="10" />
        <rect x="5" y="-30" width="30" height="10" />
      </g>
    </g>
    
    <g transform="translate(740, 450)">
      <rect x="0" y="-170" width="60" height="170" fill="url(#buildingGradient2)" />
      <!-- Windows -->
      <g fill="#FFFFFF">
        <rect x="10" y="-160" width="40" height="12" />
        <rect x="10" y="-140" width="40" height="12" />
        <rect x="10" y="-120" width="40" height="12" />
        <rect x="10" y="-100" width="40" height="12" />
        <rect x="10" y="-80" width="40" height="12" />
        <rect x="10" y="-60" width="40" height="12" />
        <rect x="10" y="-40" width="40" height="12" />
        <rect x="10" y="-20" width="40" height="12" />
      </g>
    </g>
  </g>
  
  <!-- Waves in the sea -->
  <g stroke="#FFFFFF" stroke-width="1" fill="none">
    <path d="M 0,480 C 20,475 40,485 60,480 C 80,475 100,485 120,480" />
    <path d="M 200,500 C 220,495 240,505 260,500 C 280,495 300,505 320,500" />
    <path d="M 400,490 C 420,485 440,495 460,490 C 480,485 500,495 520,490" />
    <path d="M 550,510 C 570,505 590,515 610,510 C 630,505 650,515 670,510" />
    <path d="M 700,485 C 720,480 740,490 760,485 C 780,480 800,490 820,485" />
  </g>
  
  <!-- Some Clouds -->
  <g fill="#FFFFFF" opacity="0.7">
    <ellipse cx="200" cy="100" rx="50" ry="20" />
    <ellipse cx="230" cy="90" rx="40" ry="15" />
    <ellipse cx="650" cy="80" rx="60" ry="25" />
    <ellipse cx="680" cy="70" rx="50" ry="20" />
  </g>
</svg>