<?xml version="1.0" encoding="UTF-8" standalone="no"?>
<svg width="800" height="600" xmlns="http://www.w3.org/2000/svg">
  <!-- Desert background -->
  <defs>
    <linearGradient id="skyGradient" x1="0%" y1="0%" x2="0%" y2="100%">
      <stop offset="0%" style="stop-color:#87CEEB;stop-opacity:1" />
      <stop offset="100%" style="stop-color:#F5F5DC;stop-opacity:1" />
    </linearGradient>
    <linearGradient id="sandGradient" x1="0%" y1="0%" x2="0%" y2="100%">
      <stop offset="0%" style="stop-color:#D2B48C;stop-opacity:1" />
      <stop offset="100%" style="stop-color:#8B4513;stop-opacity:1" />
    </linearGradient>
  </defs>
  
  <!-- Sky -->
  <rect width="800" height="400" fill="url(#skyGradient)" />
  
  <!-- Desert Sand -->
  <rect width="800" height="200" y="400" fill="url(#sandGradient)" />
  
  <!-- Sun -->
  <circle cx="700" cy="100" r="50" fill="#FFCC33" />
  
  <!-- Traditional Fishing Village -->
  <g transform="translate(100, 350)">
    <!-- Traditional boats (dhows) -->
    <path d="M 20,40 C 30,35 50,35 60,40 L 70,50 L 10,50 Z" fill="#8B4513" />
    <path d="M 15,40 L 15,20 L 65,20 L 65,40" stroke="#5E2605" stroke-width="2" fill="none" />
    <rect x="35" y="10" width="10" height="10" fill="#F5F5DC" />
    
    <!-- More dhows -->
    <path d="M 120,40 C 130,35 150,35 160,40 L 170,50 L 110,50 Z" fill="#8B4513" />
    <path d="M 115,40 L 115,20 L 165,20 L 165,40" stroke="#5E2605" stroke-width="2" fill="none" />
    <rect x="135" y="10" width="10" height="10" fill="#F5F5DC" />
  </g>
  
  <!-- Traditional Buildings -->
  <g transform="translate(300, 350)">
    <!-- Wind Tower Building -->
    <rect x="0" y="0" width="60" height="50" fill="#D2B48C" />
    <rect x="20" y="-20" width="20" height="20" fill="#D2B48C" />
    <rect x="25" y="-25" width="10" height="5" fill="#A52A2A" />
    
    <!-- Windows -->
    <rect x="10" y="15" width="10" height="15" fill="#A52A2A" />
    <rect x="40" y="15" width="10" height="15" fill="#A52A2A" />
    
    <!-- Simple traditional house -->
    <rect x="100" y="20" width="40" height="30" fill="#D2B48C" />
    <rect x="110" y="35" width="8" height="15" fill="#A52A2A" />
    
    <!-- Palm Trees -->
    <g transform="translate(180, 10)">
      <rect x="-5" y="25" width="10" height="15" fill="#8B4513" />
      <path d="M -15,25 C -10,15 -5,5 0,0 C 5,5 10,15 15,25" fill="#2E8B57" />
    </g>
    
    <g transform="translate(210, 5)">
      <rect x="-5" y="25" width="10" height="20" fill="#8B4513" />
      <path d="M -20,25 C -10,10 -5,0 0,-5 C 5,0 10,10 20,25" fill="#2E8B57" />
    </g>
  </g>
  
  <!-- Desert Dunes -->
  <path d="M 0,450 Q 100,420 200,440 Q 300,460 400,430 Q 500,410 600,440 Q 700,470 800,450 L 800,600 L 0,600 Z" fill="#DEB887" />
  
  <!-- Small Plants -->
  <g transform="translate(150, 480)">
    <path d="M 0,0 C 5,-10 10,-5 15,0" stroke="#556B2F" stroke-width="2" fill="none" />
    <path d="M 5,0 C 10,-8 15,-3 20,0" stroke="#556B2F" stroke-width="2" fill="none" />
  </g>
  
  <g transform="translate(450, 470)">
    <path d="M 0,0 C 5,-10 10,-5 15,0" stroke="#556B2F" stroke-width="2" fill="none" />
    <path d="M 5,0 C 10,-8 15,-3 20,0" stroke="#556B2F" stroke-width="2" fill="none" />
  </g>
  
  <g transform="translate(650, 490)">
    <path d="M 0,0 C 5,-10 10,-5 15,0" stroke="#556B2F" stroke-width="2" fill="none" />
    <path d="M 5,0 C 10,-8 15,-3 20,0" stroke="#556B2F" stroke-width="2" fill="none" />
  </g>
</svg>